<?xml version="1.0" encoding="UTF-8" standalone="no"?>
<!DOCTYPE svg PUBLIC "-//W3C//DTD SVG 20001102//EN" "http://www.w3.org/TR/2000/CR-SVG-20001102/DTD/svg-20001102.dtd">
<svg xmlns="http://www.w3.org/2000/svg" version="1.1" width="400" height="150">
  <g fill-rule="evenodd" fill="black" stroke="black" stroke-width="1">
    <!-- N -->
    <path d="m 13,18 1,116 15,-1 -2,-88 47,88 16,1 -3,-117 -13,2 3,91 -46,-95 z" />
    <!-- e -->
    <path d="m 124,104 40,0 c -1,-12 -9,-21 -27,-21 -11,0 -23,8 -23,20 0,9 2,15 9,21 8,7 30,10 41,-8 l -11,0 c -0,5 -9,6 -15,6 -6,0 -14,-3 -14,-18 M 125,99 c 0,-7 5,-9 12,-9 9,-0 14,3 16,9 l -16,0 z" />
    <!-- x -->
    <path d="m 203,98 -9,-15 -13,-1e-5 14,24 -14,24 14,-0 8,-14 8,14 13,0 -14,-25 14,-23 -13,0 z" />
    <!-- t -->
    <path d="m 246,26 -13,6 0,16 -134,-2 0,10 133,1 c -1,34 3,64 24,77 21,14 58,12 136,4 l 0,-7 c -39,-1 -111,14 -129,-5 -15,-16 -20,-19 -18,-69 l 15,-0 0,-10 -15,0 z" />
    <!-- o #1 -->
    <path d= "m 316,104 a 23,23 0 1 1 -46,0 23,23 0 1 1 46,0 M 310,104 a 16,17 0 1 1 -33,0 16,17 0 1 1 33,0 z" />
    <!-- o #2 -->
    <path d="m 375,104 a 23,23 0 1 1 -46,0 23,23 0 1 1 46,0 M 369,104 a 16,17 0 1 1 -33,0 16,17 0 1 1 33,0 z" />
  </g>
</svg>
