<?xml version="1.0" encoding="UTF-8" standalone="no"?>
<svg width="400" height="150">
  <g fill-rule="evenodd" fill="black" stroke="black" stroke-width="1">
    <!-- N -->
    <path d="m 13,18 1,116 15,-1 -2,-88 47,88 16,1 -3,-117 -13,2 3,91 -46,-95 z" />
    <!-- e -->
    <path d="m 124,104 40,0 c -1,-12 -9,-21 -27,-21 -11,0 -23,8 -23,20 0,9 2,15 9,21 8,7 30,10 41,-8 l -11,0 c -0,5 -9,6 -15,6 -6,0 -14,-3 -14,-18 M 125,99 c 0,-7 5,-9 12,-9 9,-0 14,3 16,9 l -16,0 z" />
    <!-- x -->
    <path d="m 203,98 -9,-15 -13,-1e-5 14,24 -14,24 14,-0 8,-14 8,14 13,0 -14,-25 14,-23 -13,0 z" />
    <!-- t -->
    <path d="m 246,26 -13,6 0,16 -134,-2 0,10 133,1 c -1,34 3,64 24,77 21,14 58,12 136,4 l 0,-7 c -39,-1 -111,14 -129,-5 -15,-16 -20,-19 -18,-69 l 15,-0 0,-10 -15,0 z" />
    <!-- o #1 as gear -->
    <path d="m 288.26379,83.942082 1.4289,-3.71674 1.94628,-0.114188 1.46761,3.753309 1.86887,0.18733 2.93997,-2.928612 1.86888,0.826937 -0.0822,3.415222 1.66825,0.788127 3.57582,-1.763585 1.54739,1.199357 -1.03238,3.49284 1.46997,1.274737 3.89257,-1.050837 1.11216,1.838965 -2.50236,3.152512 1.23064,1.464305 4.01105,0.26271 0.51501,1.950915 -2.77567,2.403194 -0.041,1.64939 4.01106,1.46431 -0.12086,2.17706 -3.93126,0.97545 0.002,2.21362 2.77804,2.02629 -0.39653,1.84121 -4.20931,0.52542 -0.75434,1.53969 2.18325,3.15027 -1.11216,1.50312 -3.93364,-0.9389 -1.42653,1.27474 1.18957,3.67793 -1.7891,1.12622 -3.21564,-2.17706 -1.98498,0.86351 0,3.86526 -2.06477,0.67842 -2.50473,-2.96742 -1.98499,0.0366 -1.30805,3.82868 -2.10584,0 -1.66824,-3.7533 -1.7891,-0.0731 -2.42021,2.85099 -2.22669,-0.56199 0.0387,-3.90631 -1.8278,-0.82245 -3.45734,2.14047 -1.46761,-1.12845 0.9139,-3.83093 -1.46998,-1.2725 -3.81279,1.01203 -1.10979,-1.46207 2.06239,-3.11594 -0.59478,-1.83896 -4.29146,-0.11196 -0.59241,-1.88001 2.85781,-2.32333 -0.11848,-1.99197 -3.57582,-1.04635 -0.15719,-2.25467 3.93127,-1.16055 0.20063,-1.91435 -3.1406,-2.441998 0.51501,-1.727016 4.13427,-0.26047 0.95024,-1.690444 -2.34044,-3.189083 1.31043,-1.612825 3.97234,0.973218 1.3902,-1.274737 -1.19431,-3.71674 1.62954,-1.012028 3.61452,1.838965 1.66825,-0.788127 -0.0798,-3.641361 2.22669,-0.447799 2.58215,2.588283 z M 307,104.49438 a 16.292135,15.730337 0 1 1 -32.58427,0 16.292135,15.730337 0 1 1 32.58427,0 z" />
    <!-- o #2 as gear -->
    <path d="m 350.26379,83.942082 1.4289,-3.71674 1.94628,-0.114188 1.46761,3.753309 1.86887,0.18733 2.93997,-2.928612 1.86888,0.826937 -0.0822,3.415222 1.66825,0.788127 3.57582,-1.763585 1.54739,1.199357 -1.03238,3.49284 1.46997,1.274737 3.89257,-1.050837 1.11216,1.838965 -2.50236,3.152512 1.23064,1.464305 4.01105,0.26271 0.51501,1.950915 -2.77567,2.403194 -0.041,1.64939 4.01106,1.46431 -0.12086,2.17706 -3.93126,0.97545 0.002,2.21362 2.77804,2.02629 -0.39653,1.84121 -4.20931,0.52542 -0.75434,1.53969 2.18325,3.15027 -1.11216,1.50312 -3.93364,-0.9389 -1.42653,1.27474 1.18957,3.67793 -1.7891,1.12622 -3.21564,-2.17706 -1.98498,0.86351 0,3.86526 -2.06477,0.67842 -2.50473,-2.96742 -1.98499,0.0366 -1.30805,3.82868 -2.10584,0 -1.66824,-3.7533 -1.7891,-0.0731 -2.42021,2.85099 -2.22669,-0.56199 0.0387,-3.90631 -1.8278,-0.82245 -3.45734,2.14047 -1.46761,-1.12845 0.9139,-3.83093 -1.46998,-1.2725 -3.81279,1.01203 -1.10979,-1.46207 2.06239,-3.11594 -0.59478,-1.83896 -4.29146,-0.11196 -0.59241,-1.88001 2.85781,-2.32333 -0.11848,-1.99197 -3.57582,-1.04635 -0.15719,-2.25467 3.93127,-1.16055 0.20063,-1.91435 -3.1406,-2.441998 0.51501,-1.727016 4.13427,-0.26047 0.95024,-1.690444 -2.34044,-3.189083 1.31043,-1.612825 3.97234,0.973218 1.3902,-1.274737 -1.19431,-3.71674 1.62954,-1.012028 3.61452,1.838965 1.66825,-0.788127 -0.0798,-3.641361 2.22669,-0.447799 2.58215,2.588283 z M 369,104.49438 a 16.292135,15.730337 0 1 1 -32.58427,0 16.292135,15.730337 0 1 1 32.58427,0 z" />
  </g>
</svg>
