<?xml version="1.0" encoding="UTF-8" standalone="no"?>
<svg
  width="400"
  height="150">
  <g>
    <!-- N -->
    <path
      style="fill:#000000;stroke:#000000;stroke-width:1px;stroke-linecap:butt;stroke-linejoin:miter;stroke-opacity:1"
      d="m 13,18 1,116 15,-1 -2,-88 47,88 16,1 -3,-117 -13,2 3,91 -46,-95 z"
      />
    <!-- e -->
    <path
      style="fill:#000000;stroke:#000000;stroke-width:1px;stroke-linecap:butt;stroke-linejoin:miter;stroke-opacity:1"
      d="m 124,104 40,0 c -1,-12 -9,-21 -27,-21 -11,0 -23,8 -23,20 0,9 2,15 9,21 8,7 30,10 41,-8 l -11,0 c -0,5 -9,6 -15,6 -6,0 -14,-3 -14,-18 M 125,99 c 0,-7 5,-9 12,-9 9,-0 14,3 16,9 l -16,0 z"
      />
    <!-- x -->
    <path
      style="fill:#000000;stroke:#000000;stroke-width:1px;stroke-linecap:butt;stroke-linejoin:miter;stroke-opacity:1"
      d="m 203,98 -9,-15 -13,-1e-5 14,24 -14,24 14,-0 8,-14 8,14 13,0 -14,-25 14,-23 -13,0 z"
      />
    <!-- t -->
    <path
      style="fill:#000000;stroke:#000000;stroke-width:1px;stroke-linecap:butt;stroke-linejoin:miter;stroke-opacity:1"
      d="m 246,26 -13,6 0,16 -134,-2 0,10 133,1 c -1,34 3,64 24,77 21,14 58,12 136,4 l 0,-7 c -39,-1 -111,14 -129,-5 -15,-16 -20,-19 -18,-69 l 15,-0 0,-10 -15,0 z"
      />
    <!-- o #1 outer -->
    <path
      style="fill:#000000;stroke:#000000"
      d= "m 316,104 a 23,23 0 1 1 -46,0 23,23 0 1 1 46,0" />
    <!-- o #1 inner -->
    <path
      style="fill:#ffffff;stroke:#000000"
      d="m 310,104 a 16,17 0 1 1 -33,0 16,17 0 1 1 33,0" />
    <!-- o #2 outer -->
    <path
      style="fill:#000000;stroke:#000000"
      d="m 375,104 a 23,23 0 1 1 -46,0 23,23 0 1 1 46,0" />
    <!-- o #2 inner -->
    <path
      style="fill:#ffffff;stroke:#000000"
      d="m 369,104 a 16,17 0 1 1 -33,0 16,17 0 1 1 33,0 z" />
  </g>
</svg>
